# xmcd CD database file
#
# Track frame offsets:
#       150
#       16231
#       18743
#       41828
#       54193
#       70515
#       84265
#       85456
#       106812
#       108063
#       123192
#       145197
#       157745
#
# Disc length: 2373 seconds
#
# Revision: 0
# Processed by: cddbd v1.5.2PL0 Copyright (c) Steve Scherf et al.
# Submitted via: jack 3.1.1
#
DISCID=9109430d
DTITLE=Aaron Watson - Barbed Wire Halo
DYEAR=2006
DGENRE=Religious
TTITLE0=I've Always Loved You
TTITLE1=Philippians 3:12-14 [Reading by Billy Joe Shaver]
TTITLE2=Barbed Wire Halo
TTITLE3=Where the River Flows
TTITLE4=I Met Jesus in a Bar
TTITLE5=Long Vacation
TTITLE6=John 8:12 [Reading by Billy Joe Shaver]
TTITLE7=Sonshine
TTITLE8=Romans 7:24-25 [Reading by Billy Joe Shaver]
TTITLE9=Old Chunk of Coal
TTITLE10=Farther Along [with Kina Lankford]
TTITLE11=Amazing Grace [with Kina Lankford]
TTITLE12=Nothing But The Blood [featuring Tim Curry and the Wesley United Methodist Church Choir]
EXTD=
EXTT0=
EXTT1=
EXTT2=
EXTT3=
EXTT4=
EXTT5=
EXTT6=
EXTT7=
EXTT8=
EXTT9=
EXTT10=
EXTT11=
EXTT12=
PLAYORDER=
